# File produced by Open Asset Import Library (http://www.assimp.sf.net)
# (assimp v5.0.1588609223)

mtllib result.mtl

# 16 vertex positions
v  200 -7.1214893e-13 -750
v  200 8.146033e-06 -700
v  200 200.00002 -700
v  200 200 -750
v  400 200.00002 -700
v  400 200 -750
v  400 8.146033e-06 -700
v  400 -7.1214893e-13 -750
v  350 50.000004 -700
v  350 150.00002 -700
v  350 150 -750
v  350 49.999996 -750
v  250 50.000004 -700
v  250 49.999996 -750
v  250 150 -750
v  250 150.00002 -700

# 0 UV coordinates

# 10 vertex normals
vn -100 0 -0
vn 0 100 -1.6292068e-05
vn 100 0 0
vn 0 -100 1.6292068e-05
vn 0 -1.1920929e-05 -100
vn -2.9802322e-06 1.2318425e-05 100
vn 0 1.6292068e-05 100
vn 2.9802322e-06 1.2318425e-05 100
vn 0 -1.1920928e-05 -100
vn 0 8.3447812e-06 100

# Mesh 'Cube.014' with 16 faces
g Cube.014
usemtl Material
f  1//1 2//1 3//1 4//1
f  4//2 3//2 5//2 6//2
f  6//3 5//3 7//3 8//3
f  8//4 7//4 2//4 1//4
f  9//1 10//1 11//1 12//1
f  13//2 9//2 12//2 14//2
f  15//5 14//5 1//5 4//5
f  13//6 16//6 3//6 2//6
f  11//5 15//5 4//5 6//5
f  16//7 10//7 5//7 3//7
f  12//5 11//5 6//5 8//5
f  10//8 9//8 7//8 5//8
f  14//9 12//9 8//9 1//9
f  9//10 13//10 2//10 7//10
f  10//4 16//4 15//4 11//4
f  16//3 13//3 14//3 15//3

