# File produced by Open Asset Import Library (http://www.assimp.sf.net)
# (assimp v5.0.1588609223)

mtllib result.mtl

# 136 vertex positions
v  3800 375 -6.5565604e-05
v  3800 400 -6.963862e-05
v  3800 400 -20.000063
v  3800 375 -20.000059
v  3973.3333 375 -20.000059
v  3973.3333 400 -20.000063
v  4000 400 -20.000063
v  4000 375 -20.000059
v  4000 400 -6.963862e-05
v  4000 375 -6.5565604e-05
v  3826.6667 375 -6.5565604e-05
v  3826.6667 400 -6.963862e-05
v  3826.6667 400 -20.000063
v  3973.3333 400 -6.963862e-05
v  3826.6667 225 -4.11275e-05
v  3826.6667 200 -3.7054484e-05
v  3826.6667 200 -20.000031
v  3826.6667 225 -20.000034
v  3973.3333 375 -6.5565604e-05
v  3826.6667 375 -20.000059
v  3826.6667 250 -20.000038
v  3973.3333 250 -20.000038
v  3973.3333 225 -20.000034
v  3826.6667 275 -20.000042
v  3826.6667 300 -20.000048
v  3973.3333 300 -20.000048
v  3973.3333 275 -20.000042
v  3826.6667 325 -20.000051
v  3826.6667 350 -20.000055
v  3973.3333 350 -20.000055
v  3973.3333 325 -20.000051
v  3800 200 -20.000031
v  3800 225 -20.000034
v  3800 250 -20.000038
v  3800 275 -20.000042
v  3800 300 -20.000048
v  3800 325 -20.000051
v  3800 350 -20.000055
v  3973.3333 225 -4.11275e-05
v  3973.3333 250 -4.5200519e-05
v  3826.6667 250 -4.5200519e-05
v  3973.3333 275 -4.9273534e-05
v  3973.3333 300 -5.334655e-05
v  3826.6667 300 -5.334655e-05
v  3826.6667 275 -4.9273534e-05
v  3973.3333 325 -5.7419569e-05
v  3973.3333 350 -6.1492581e-05
v  3826.6667 350 -6.1492581e-05
v  3826.6667 325 -5.7419569e-05
v  4000 200 -3.7054484e-05
v  4000 225 -4.11275e-05
v  3973.3333 200 -3.7054484e-05
v  4000 250 -4.5200519e-05
v  4000 275 -4.9273534e-05
v  4000 300 -5.334655e-05
v  4000 325 -5.7419569e-05
v  4000 350 -6.1492581e-05
v  3800 225 -4.11275e-05
v  3800 200 -3.7054484e-05
v  3800 250 -4.5200519e-05
v  3800 275 -4.9273534e-05
v  3800 300 -5.334655e-05
v  3800 325 -5.7419569e-05
v  3800 350 -6.1492581e-05
v  4000 200 -20.000031
v  4000 225 -20.000034
v  4000 250 -20.000038
v  4000 275 -20.000042
v  4000 300 -20.000048
v  4000 325 -20.000051
v  4000 350 -20.000055
v  3973.3333 200 -20.000031
v  3800 175 -3.2981465e-05
v  3800 175 -20.000027
v  3973.3333 175 -20.000027
v  4000 175 -20.000027
v  4000 175 -3.2981465e-05
v  3826.6667 175 -3.2981465e-05
v  3973.3333 -3.258413e-06 -19.999998
v  4000 -3.258413e-06 -19.999998
v  4000 -7.2831216e-13 -4.4703484e-06
v  3973.3333 -7.2831216e-13 -4.4703484e-06
v  3800 -3.258413e-06 -19.999998
v  3826.6667 -3.258413e-06 -19.999998
v  3826.6667 -7.2831216e-13 -4.4703484e-06
v  3800 -7.2831216e-13 -4.4703484e-06
v  3826.6667 25 -8.5433658e-06
v  3826.6667 24.999996 -20.000002
v  3973.3333 175 -3.2981465e-05
v  3826.6667 175 -20.000027
v  3826.6667 49.999996 -20.000006
v  3973.3333 49.999996 -20.000006
v  3973.3333 24.999996 -20.000002
v  3826.6667 75 -20.00001
v  3826.6667 100 -20.000015
v  3973.3333 100 -20.000015
v  3973.3333 75 -20.00001
v  3826.6667 125 -20.000019
v  3826.6667 150 -20.000023
v  3973.3333 150 -20.000023
v  3973.3333 125 -20.000019
v  3800 24.999996 -20.000002
v  3800 49.999996 -20.000006
v  3800 75 -20.00001
v  3800 100 -20.000015
v  3800 125 -20.000019
v  3800 150 -20.000023
v  3973.3333 25 -8.5433658e-06
v  3973.3333 50 -1.2616382e-05
v  3826.6667 50 -1.2616382e-05
v  3973.3333 75 -1.6689399e-05
v  3973.3333 100 -2.0762416e-05
v  3826.6667 100 -2.0762416e-05
v  3826.6667 75 -1.6689399e-05
v  3973.3333 125 -2.4835434e-05
v  3973.3333 150 -2.8908449e-05
v  3826.6667 150 -2.8908449e-05
v  3826.6667 125 -2.4835434e-05
v  4000 25 -8.5433658e-06
v  4000 50 -1.2616382e-05
v  4000 75 -1.6689399e-05
v  4000 100 -2.0762416e-05
v  4000 125 -2.4835434e-05
v  4000 150 -2.8908449e-05
v  3800 25 -8.5433658e-06
v  3800 50 -1.2616382e-05
v  3800 75 -1.6689399e-05
v  3800 100 -2.0762416e-05
v  3800 125 -2.4835434e-05
v  3800 150 -2.8908449e-05
v  4000 24.999996 -20.000002
v  4000 49.999996 -20.000006
v  4000 75 -20.00001
v  4000 100 -20.000015
v  4000 125 -20.000019
v  4000 150 -20.000023

# 0 UV coordinates

# 6 vertex normals
vn -100 0 -0
vn 0 -1.6292068e-05 -100
vn 100 0 0
vn 0 1.6292068e-05 100
vn 0 100 -1.6292068e-05
vn 0 -100 1.6292068e-05

# Mesh 'Cube.038' with 148 faces
g Cube.038
usemtl Material
f  1//1 2//1 3//1 4//1
f  5//2 6//2 7//2 8//2
f  8//3 7//3 9//3 10//3
f  11//4 12//4 2//4 1//4
f  13//5 3//5 2//5 12//5
f  7//5 6//5 14//5 9//5
f  6//5 13//5 12//5 14//5
f  15//3 16//3 17//3 18//3
f  10//4 9//4 14//4 19//4
f  19//4 14//4 12//4 11//4
f  4//2 3//2 13//2 20//2
f  20//2 13//2 6//2 5//2
f  18//2 21//2 22//2 23//2
f  24//2 25//2 26//2 27//2
f  28//2 29//2 30//2 31//2
f  32//2 33//2 18//2 17//2
f  33//2 34//2 21//2 18//2
f  34//2 35//2 24//2 21//2
f  35//2 36//2 25//2 24//2
f  36//2 37//2 28//2 25//2
f  37//2 38//2 29//2 28//2
f  38//2 4//2 20//2 29//2
f  39//4 40//4 41//4 15//4
f  42//4 43//4 44//4 45//4
f  46//4 47//4 48//4 49//4
f  50//4 51//4 39//4 52//4
f  51//4 53//4 40//4 39//4
f  53//4 54//4 42//4 40//4
f  54//4 55//4 43//4 42//4
f  55//4 56//4 46//4 43//4
f  56//4 57//4 47//4 46//4
f  57//4 10//4 19//4 47//4
f  16//4 15//4 58//4 59//4
f  15//4 41//4 60//4 58//4
f  41//4 45//4 61//4 60//4
f  45//4 44//4 62//4 61//4
f  44//4 49//4 63//4 62//4
f  49//4 48//4 64//4 63//4
f  48//4 11//4 1//4 64//4
f  65//3 66//3 51//3 50//3
f  66//3 67//3 53//3 51//3
f  67//3 68//3 54//3 53//3
f  68//3 69//3 55//3 54//3
f  69//3 70//3 56//3 55//3
f  70//3 71//3 57//3 56//3
f  71//3 8//3 10//3 57//3
f  72//2 23//2 66//2 65//2
f  23//2 22//2 67//2 66//2
f  22//2 27//2 68//2 67//2
f  27//2 26//2 69//2 68//2
f  26//2 31//2 70//2 69//2
f  31//2 30//2 71//2 70//2
f  30//2 5//2 8//2 71//2
f  59//1 58//1 33//1 32//1
f  58//1 60//1 34//1 33//1
f  60//1 61//1 35//1 34//1
f  61//1 62//1 36//1 35//1
f  62//1 63//1 37//1 36//1
f  63//1 64//1 38//1 37//1
f  64//1 1//1 4//1 38//1
f  23//6 39//6 15//6 18//6
f  39//1 23//1 72//1 52//1
f  21//5 41//5 40//5 22//5
f  40//1 42//1 27//1 22//1
f  24//6 27//6 42//6 45//6
f  41//3 21//3 24//3 45//3
f  25//5 44//5 43//5 26//5
f  43//1 46//1 31//1 26//1
f  28//6 31//6 46//6 49//6
f  44//3 25//3 28//3 49//3
f  29//5 48//5 47//5 30//5
f  47//1 19//1 5//1 30//1
f  20//6 5//6 19//6 11//6
f  48//3 29//3 20//3 11//3
f  73//1 59//1 32//1 74//1
f  75//2 72//2 65//2 76//2
f  76//3 65//3 50//3 77//3
f  78//4 16//4 59//4 73//4
f  79//6 80//6 81//6 82//6
f  72//5 17//5 16//5 52//5
f  83//6 84//6 85//6 86//6
f  87//3 85//3 84//3 88//3
f  77//4 50//4 52//4 89//4
f  89//4 52//4 16//4 78//4
f  74//2 32//2 17//2 90//2
f  90//2 17//2 72//2 75//2
f  88//2 91//2 92//2 93//2
f  94//2 95//2 96//2 97//2
f  98//2 99//2 100//2 101//2
f  83//2 102//2 88//2 84//2
f  102//2 103//2 91//2 88//2
f  103//2 104//2 94//2 91//2
f  104//2 105//2 95//2 94//2
f  105//2 106//2 98//2 95//2
f  106//2 107//2 99//2 98//2
f  107//2 74//2 90//2 99//2
f  108//4 109//4 110//4 87//4
f  111//4 112//4 113//4 114//4
f  115//4 116//4 117//4 118//4
f  81//4 119//4 108//4 82//4
f  119//4 120//4 109//4 108//4
f  120//4 121//4 111//4 109//4
f  121//4 122//4 112//4 111//4
f  122//4 123//4 115//4 112//4
f  123//4 124//4 116//4 115//4
f  124//4 77//4 89//4 116//4
f  85//4 87//4 125//4 86//4
f  87//4 110//4 126//4 125//4
f  110//4 114//4 127//4 126//4
f  114//4 113//4 128//4 127//4
f  113//4 118//4 129//4 128//4
f  118//4 117//4 130//4 129//4
f  117//4 78//4 73//4 130//4
f  80//3 131//3 119//3 81//3
f  131//3 132//3 120//3 119//3
f  132//3 133//3 121//3 120//3
f  133//3 134//3 122//3 121//3
f  134//3 135//3 123//3 122//3
f  135//3 136//3 124//3 123//3
f  136//3 76//3 77//3 124//3
f  79//2 93//2 131//2 80//2
f  93//2 92//2 132//2 131//2
f  92//2 97//2 133//2 132//2
f  97//2 96//2 134//2 133//2
f  96//2 101//2 135//2 134//2
f  101//2 100//2 136//2 135//2
f  100//2 75//2 76//2 136//2
f  86//1 125//1 102//1 83//1
f  125//1 126//1 103//1 102//1
f  126//1 127//1 104//1 103//1
f  127//1 128//1 105//1 104//1
f  128//1 129//1 106//1 105//1
f  129//1 130//1 107//1 106//1
f  130//1 73//1 74//1 107//1
f  93//6 108//6 87//6 88//6
f  108//1 93//1 79//1 82//1
f  91//5 110//5 109//5 92//5
f  109//1 111//1 97//1 92//1
f  94//6 97//6 111//6 114//6
f  110//3 91//3 94//3 114//3
f  95//5 113//5 112//5 96//5
f  112//1 115//1 101//1 96//1
f  98//6 101//6 115//6 118//6
f  113//3 95//3 98//3 118//3
f  99//5 117//5 116//5 100//5
f  116//1 89//1 75//1 100//1
f  90//6 75//6 89//6 78//6
f  117//3 99//3 90//3 78//3

