# File produced by Open Asset Import Library (http://www.assimp.sf.net)
# (assimp v5.0.1588609223)

mtllib result.mtl

# 26 vertex positions
v  2900 5.4306897e-06 33.333336
v  3100 5.4306884e-06 33.333328
v  3100 1.6292068e-05 100
v  2900 1.6292068e-05 100
v  3100 33.333347 99.999992
v  2900 33.333351 99.999992
v  3100 33.333336 33.333332
v  2900 -1.6292068e-05 -100
v  2900 33.333317 -100.00001
v  3100 33.333317 -100.00001
v  3100 -1.6292068e-05 -100
v  2900 66.666649 -100.00001
v  3100 66.666649 -100.00001
v  2900 99.999977 -100.00002
v  3100 99.999977 -100.00002
v  2900 33.33334 33.333324
v  3100 66.666672 33.333324
v  2900 66.666679 33.333317
v  2900 66.666664 -33.333347
v  2900 33.333332 -33.33334
v  2900 -5.4306884e-06 -33.333328
v  3100 33.333328 -33.333332
v  3100 66.666656 -33.33334
v  3100 -5.4306897e-06 -33.333336
v  2900 99.999992 -33.333351
v  3100 99.999985 -33.333344

# 0 UV coordinates

# 12 vertex normals
vn 0 -100 1.6292068e-05
vn 0 1.6292068e-05 100
vn 100 0 0
vn 0 -1.6292068e-05 -100
vn 2.2351742e-06 100 -1.6292068e-05
vn -4.4703484e-06 1.6292068e-05 100
vn -100 0 -0
vn -99.999992 0 -0
vn 99.999992 0 0
vn 2.2351742e-06 100 -2.0762416e-05
vn 2.235174e-06 100 -1.6292068e-05
vn -4.4703493e-06 1.6292068e-05 100

# Mesh 'Cube.004' with 24 faces
g Cube.004
usemtl Material
f  1//1 2//1 3//1 4//1
f  3//2 5//2 6//2 4//2
f  2//3 7//3 5//3 3//3
f  8//4 9//4 10//4 11//4
f  9//4 12//4 13//4 10//4
f  12//4 14//4 15//4 13//4
f  6//5 5//5 7//5 16//5
f  16//6 7//6 17//6 18//6
f  16//7 18//7 19//7 20//7
f  20//7 19//7 12//7 9//7
f  4//8 6//8 16//8 1//8
f  1//7 16//7 20//7 21//7
f  21//7 20//7 9//7 8//7
f  7//3 22//3 23//3 17//3
f  10//9 13//9 23//9 22//9
f  11//3 10//3 22//3 24//3
f  24//3 22//3 7//3 2//3
f  15//10 14//10 25//10 26//10
f  8//1 11//1 24//1 21//1
f  21//1 24//1 2//1 1//1
f  23//11 19//11 18//11 17//11
f  12//8 19//8 25//8 14//8
f  23//3 13//3 15//3 26//3
f  19//12 23//12 26//12 25//12

