# File produced by Open Asset Import Library (http://www.assimp.sf.net)
# (assimp v5.0.1588609223)

mtllib result.mtl

# 36 vertex positions
v  1099 152.01926 292.23508
v  1099 152.01926 307.76489
v  1137.1218 130.00964 307.76489
v  1137.1218 130.00964 292.23508
v  1137.1218 85.990372 307.76489
v  1137.1218 85.990372 292.23508
v  1099 63.980751 307.76489
v  1099 63.980751 292.23508
v  1060.8782 85.990379 307.76489
v  1060.8782 85.990379 292.23508
v  1123.2726 93.986198 307.76489
v  1123.2726 122.01381 307.76489
v  1123.2726 122.01381 304.33487
v  1123.2726 93.986198 304.33487
v  1060.8782 130.00963 307.76489
v  1060.8782 130.00963 292.23508
v  1099 79.972397 292.23508
v  1074.7274 93.986206 292.23508
v  1074.7274 93.986206 295.66513
v  1099 79.972397 295.66513
v  1123.2726 122.01381 292.23508
v  1099 136.02762 292.23508
v  1099 136.02762 307.76489
v  1123.2726 93.986198 292.23508
v  1099 79.972397 307.76489
v  1074.7274 93.986206 307.76489
v  1074.7274 122.01381 292.23508
v  1074.7274 122.01381 307.76489
v  1099 136.02762 304.33487
v  1074.7274 122.01381 304.33487
v  1074.7274 93.986206 304.33487
v  1099 79.972397 304.33487
v  1099 136.02762 295.66513
v  1123.2726 122.01381 295.66513
v  1123.2726 93.986198 295.66513
v  1074.7274 122.01381 295.66513

# 0 UV coordinates

# 22 vertex normals
vn 49.999992 86.602539 0
vn 100 -1.0898862e-05 0
vn 49.999981 -86.602554 0
vn -50.000008 -86.602539 0
vn -100 0 0
vn -50 86.602539 0
vn 50.000011 86.602531 0
vn 0 0 -99.999992
vn 0 0 99.999992
vn 0 0 -100
vn 0 0 100
vn -3.7335421e-06 0 100
vn 7.4670829e-06 0 100
vn 2.2816351e-07 0 100
vn -9.1265406e-07 0 -100
vn 50.000011 -86.602539 0
vn 50.000008 86.602524 0
vn -49.999989 86.602547 0
vn 50.000011 -86.602531 0
vn -50.000008 -86.602531 0
vn 100 0 0
vn -49.999985 86.602554 0

# Mesh 'Cylinder.007' with 32 faces
g Cylinder.007
usemtl Material
f  1//1 2//1 3//1 4//1
f  4//2 3//2 5//2 6//2
f  6//3 5//3 7//3 8//3
f  8//4 7//4 9//4 10//4
f  11//5 12//5 13//5 14//5
f  10//5 9//5 15//5 16//5
f  16//6 15//6 2//6 1//6
f  17//7 18//7 19//7 20//7
f  21//8 22//8 1//8 4//8
f  23//9 12//9 3//9 2//9
f  24//10 21//10 4//10 6//10
f  12//11 11//11 5//11 3//11
f  17//10 24//10 6//10 8//10
f  11//9 25//9 7//9 5//9
f  18//10 17//10 8//10 10//10
f  25//12 26//12 9//12 7//12
f  27//10 18//10 10//10 16//10
f  26//13 28//13 15//13 9//13
f  22//10 27//10 16//10 1//10
f  28//11 23//11 2//11 15//11
f  13//14 29//14 30//14 31//14 32//14 14//14
f  33//15 34//15 35//15 20//15 19//15 36//15
f  27//16 22//16 33//16 36//16
f  22//4 21//4 34//4 33//4
f  26//17 25//17 32//17 31//17
f  24//18 17//18 20//18 35//18
f  23//19 28//19 30//19 29//19
f  12//20 23//20 29//20 13//20
f  18//21 27//21 36//21 19//21
f  25//22 11//22 14//22 32//22
f  21//5 24//5 35//5 34//5
f  28//21 26//21 31//21 30//21

