# File produced by Open Asset Import Library (http://www.assimp.sf.net)
# (assimp v5.0.1588609223)

mtllib result.mtl

# 32 vertex positions
v  2240.2998 199.99998 -550
v  2240.3 -2.1855731e-06 -550
v  2199.6997 -1.4106502e-05 -550
v  2199.6997 199.99998 -550
v  2240.3 5.9604608e-06 -500.00003
v  2240.2998 200 -500
v  2199.6997 200 -500
v  2199.6997 -5.9604686e-06 -500.00003
v  2219.9998 129.39978 -540
v  2219.9998 129.39978 -510.00003
v  2219.9998 170 -510.00003
v  2219.9998 170 -540
v  2579.9998 170 -510.00003
v  2579.9998 170 -540
v  2579.9998 70.60022 -540
v  2579.9998 70.600212 -510
v  2579.9998 30 -510
v  2579.9998 29.999996 -540
v  2219.9998 30 -510
v  2219.9998 29.999996 -540
v  2219.9998 70.600204 -540
v  2219.9998 70.600227 -510
v  2579.9998 129.39978 -510.00003
v  2579.9998 129.39978 -540
v  2600.3 199.99998 -550
v  2600.3 -2.1855731e-06 -550
v  2559.6997 -1.4106502e-05 -550
v  2559.6997 199.99998 -550
v  2600.3 5.9604608e-06 -500.00003
v  2600.3 200 -500
v  2559.6997 200 -500
v  2559.6997 -5.9604686e-06 -500.00003

# 0 UV coordinates

# 19 vertex normals
vn 0 9.3994458e-06 -100
vn 0 -1.0530028e-05 100
vn 100 1.1920931e-05 -1.942166e-12
vn 2.9361729e-05 -100 1.6292068e-05
vn 0 100 -1.6292068e-05
vn -100 -1.1920929e-05 1.9421658e-12
vn -99.999992 0 -0
vn 100 0 0
vn 0 -100 1.6292068e-05
vn 0 -1.6292068e-05 -100
vn -1.2153442e-13 1.017504e-05 100
vn 0 2.0190046e-06 99.999992
vn 0 -1.6292066e-05 -99.999992
vn 99.999992 0 0
vn -100 -2.4717357e-13 -1.5171405e-06
vn 0 9.3994713e-06 -100
vn 0 -1.0530053e-05 100
vn 2.9361747e-05 -100 1.6292068e-05
vn -100 -2.3841858e-05 3.8843317e-12

# Mesh 'Cylinder.081' with 24 faces
g Cylinder.081
usemtl Material
f  1//1 2//1 3//1 4//1
f  5//2 6//2 7//2 8//2
f  1//3 6//3 5//3 2//3
f  2//4 5//4 8//4 3//4
f  4//5 7//5 6//5 1//5
f  7//6 4//6 3//6 8//6
f  9//7 10//7 11//7 12//7
f  12//5 11//5 13//5 14//5
f  15//8 16//8 17//8 18//8
f  18//9 17//9 19//9 20//9
f  21//10 15//10 18//10 20//10
f  16//11 22//11 19//11 17//11
f  13//12 11//12 10//12 23//12
f  12//13 14//13 24//13 9//13
f  14//14 13//14 23//14 24//14
f  22//5 16//5 15//5 21//5
f  20//15 19//15 22//15 21//15
f  10//9 9//9 24//9 23//9
f  25//16 26//16 27//16 28//16
f  29//17 30//17 31//17 32//17
f  25//8 30//8 29//8 26//8
f  26//18 29//18 32//18 27//18
f  28//5 31//5 30//5 25//5
f  31//19 28//19 27//19 32//19

