# File produced by Open Asset Import Library (http://www.assimp.sf.net)
# (assimp v5.0.1588609223)

mtllib result.mtl

# 9 vertex positions
v  3000 400.00003 -2800
v  3000 3.0517578e-05 -2800
v  3200 6.8664551e-05 -2600
v  3200 400.00006 -2600
v  3000 400.00003 -3000
v  3000 3.0517578e-05 -3000
v  3400 400.00012 -2600
v  3400 0.00010681152 -2600
v  3400 400.00009 -3000

# 0 UV coordinates

# 6 vertex normals
vn -70.710693 -1.5875223e-05 70.710655
vn -100 -2.5133062e-05 -1.6292068e-05
vn -1.6292068e-05 -3.1721828e-12 100
vn -1.9470715e-05 100 -2.3841858e-05
vn -1.5497077e-05 100 6.4738845e-13
vn -1.3510255e-05 100 9.7108281e-13

# Mesh 'Cube.057' with 6 faces
g Cube.057
usemtl Material
f  1//1 2//1 3//1 4//1
f  2//2 1//2 5//2 6//2
f  7//3 4//3 3//3 8//3
f  7//4 9//4 4//4
f  4//5 9//5 1//5
f  5//6 1//6 9//6

