# File produced by Open Asset Import Library (http://www.assimp.sf.net)
# (assimp v5.0.1588609223)

mtllib result.mtl

# 36 vertex positions
v  -475 20 0
v  -537.5 19.999983 -108.25318
v  -543.75 41.65062 -97.427864
v  -487.5 41.650635 -3.527336e-06
v  -556.25 41.650623 -75.777229
v  -512.5 41.650635 -3.527336e-06
v  -562.5 19.999989 -64.951912
v  -525 20 -4.9880076e-22
v  -556.25 -1.6506462 -75.777229
v  -512.5 -1.6506348 3.527336e-06
v  -543.75 -1.65065 -97.427864
v  -487.5 -1.6506348 3.527336e-06
v  -662.5 19.999983 -108.25319
v  -656.25 41.65062 -97.427872
v  -643.75 41.650623 -75.777229
v  -637.5 19.999989 -64.951912
v  -643.75 -1.6506462 -75.777229
v  -656.25 -1.65065 -97.427872
v  -725 20 -1.0927847e-05
v  -712.5 41.650635 -1.3362399e-05
v  -687.5 41.650635 -1.1176829e-05
v  -675 20 -6.5567078e-06
v  -687.5 -1.6506348 -4.1221565e-06
v  -712.5 -1.6506348 -6.3077268e-06
v  -662.5 20.000017 108.25319
v  -656.25 41.65065 97.427872
v  -643.75 41.650646 75.777229
v  -637.5 20.000011 64.951912
v  -643.75 -1.6506233 75.777229
v  -656.25 -1.6506195 97.427872
v  -537.5 20.000017 108.25318
v  -543.75 41.65065 97.427864
v  -556.25 41.650646 75.777229
v  -562.5 20.000011 64.951912
v  -556.25 -1.6506233 75.777229
v  -543.75 -1.6506195 97.427864

# 0 UV coordinates

# 30 vertex normals
vn 77.459663 44.721352 -44.721375
vn 0 100 -1.6292068e-05
vn -77.459663 44.721371 44.721355
vn -77.459663 -44.721355 44.721371
vn 0 -100 1.6292068e-05
vn 77.459663 -44.721367 -44.721359
vn 6.7574115e-06 44.721386 -89.442703
vn 7.9855107e-07 100 -1.6292068e-05
vn -6.6294751e-06 44.721413 89.442696
vn -6.561479e-06 -44.721382 89.442711
vn -7.9855107e-07 -100 1.6292068e-05
vn 6.8039362e-06 -44.721382 -89.442711
vn -77.459656 44.721359 -44.721378
vn 77.459656 44.721359 44.721359
vn 77.459656 -44.721352 44.721375
vn -77.459656 -44.721371 -44.721363
vn -77.459671 44.721367 44.721359
vn 6.8825516e-06 100 -1.6292068e-05
vn 77.459663 44.721355 -44.721375
vn 77.459663 -44.721363 -44.721359
vn 6.8825516e-06 -100 1.6292068e-05
vn -77.459663 -44.721352 44.721375
vn 6.7574128e-06 44.721382 89.442711
vn -6.6294751e-06 44.721382 -89.442711
vn -6.561479e-06 -44.721413 -89.442696
vn 6.8039349e-06 -44.721386 89.442703
vn 77.459663 44.721367 44.721359
vn -77.459663 44.721355 -44.721371
vn -77.459663 -44.721371 -44.721355
vn 77.459663 -44.721352 44.721375

# Mesh 'Torus' with 36 faces
g Torus
usemtl Material
f  1//1 2//1 3//1 4//1
f  4//2 3//2 5//2 6//2
f  6//3 5//3 7//3 8//3
f  8//4 7//4 9//4 10//4
f  10//5 9//5 11//5 12//5
f  12//6 11//6 2//6 1//6
f  2//7 13//7 14//7 3//7
f  3//8 14//8 15//8 5//8
f  5//9 15//9 16//9 7//9
f  7//10 16//10 17//10 9//10
f  9//11 17//11 18//11 11//11
f  11//12 18//12 13//12 2//12
f  13//13 19//13 20//13 14//13
f  14//2 20//2 21//2 15//2
f  15//14 21//14 22//14 16//14
f  16//15 22//15 23//15 17//15
f  17//5 23//5 24//5 18//5
f  18//16 24//16 19//16 13//16
f  19//17 25//17 26//17 20//17
f  20//18 26//18 27//18 21//18
f  21//19 27//19 28//19 22//19
f  22//20 28//20 29//20 23//20
f  23//21 29//21 30//21 24//21
f  24//22 30//22 25//22 19//22
f  25//23 31//23 32//23 26//23
f  26//8 32//8 33//8 27//8
f  27//24 33//24 34//24 28//24
f  28//25 34//25 35//25 29//25
f  29//11 35//11 36//11 30//11
f  30//26 36//26 31//26 25//26
f  31//27 1//27 4//27 32//27
f  32//2 4//2 6//2 33//2
f  33//28 6//28 8//28 34//28
f  34//29 8//29 10//29 35//29
f  35//5 10//5 12//5 36//5
f  36//30 12//30 1//30 31//30

