# File produced by Open Asset Import Library (http://www.assimp.sf.net)
# (assimp v5.0.1588609223)

mtllib result.mtl

# 5 vertex positions
v  -400 1.6292068e-05 100
v  -300 200 -3.2584136e-05
v  -400 -1.6292068e-05 -100
v  -200 -1.6292068e-05 -100
v  -200 1.6292068e-05 100

# 0 UV coordinates

# 5 vertex normals
vn -89.442719 44.721359 -7.2860344e-06
vn 0 44.721344 -89.442726
vn 89.442719 44.721359 -7.2860344e-06
vn 0 44.721375 89.442711
vn 0 -100 1.6292068e-05

# Mesh 'Cube.025' with 5 faces
g Cube.025
usemtl Material
f  1//1 2//1 3//1
f  3//2 2//2 4//2
f  4//3 2//3 5//3
f  5//4 2//4 1//4
f  3//5 4//5 5//5 1//5

