# File produced by Open Asset Import Library (http://www.assimp.sf.net)
# (assimp v5.0.1588609223)

mtllib result.mtl

# 56 vertex positions
v  231.41092 1.1174579e-05 68.589081
v  231.41092 -1.1174579e-05 -68.589081
v  241.75267 15.07782 -58.247337
v  241.75267 15.077839 58.24733
v  400 168.58907 -68.589111
v  400 168.5891 68.58905
v  384.92218 158.24734 58.247307
v  384.92218 158.24731 -58.24736
v  200 168.58907 -68.589111
v  200 31.410912 -68.589088
v  215.07782 41.752659 -58.247341
v  215.07782 158.24731 -58.24736
v  368.58908 199.99998 -68.589111
v  231.41092 199.99998 -68.589111
v  241.75267 184.92215 -58.247364
v  358.24734 184.92215 -58.247364
v  231.41092 31.41094 99.999992
v  368.58908 31.41094 99.999992
v  358.24734 41.752682 84.922165
v  241.75267 41.752682 84.922165
v  231.41092 168.58907 -100.00003
v  368.58908 168.58907 -100.00003
v  358.24734 158.24731 -84.922195
v  241.75267 158.24731 -84.922195
v  200 1.6292068e-05 100
v  200 200.00002 99.999969
v  200 168.5891 68.58905
v  200 31.410934 68.589073
v  200 199.99998 -100.00003
v  200 -1.6292068e-05 -100
v  231.41092 31.410906 -100.00001
v  400 199.99998 -100.00003
v  400 -1.6292068e-05 -100
v  368.58908 31.410906 -100.00001
v  400 31.410912 -68.589088
v  400 200.00002 99.999969
v  400 1.6292068e-05 100
v  400 31.410934 68.589073
v  368.58908 168.5891 99.999969
v  231.41092 168.5891 99.999969
v  368.58908 -1.1174579e-05 -68.589081
v  368.58908 1.1174579e-05 68.589081
v  231.41092 200.00002 68.58905
v  368.58908 200.00002 68.58905
v  215.07782 41.752674 58.247326
v  215.07782 158.24734 58.247307
v  241.75267 41.752651 -84.92218
v  358.24734 41.752651 -84.92218
v  384.92218 41.752659 -58.247341
v  384.92218 41.752674 58.247326
v  358.24734 158.24734 84.92215
v  241.75267 158.24734 84.92215
v  358.24734 15.07782 -58.247337
v  358.24734 15.077839 58.24733
v  241.75267 184.92218 58.247303
v  358.24734 184.92218 58.247303

# 0 UV coordinates

# 30 vertex normals
vn 82.466087 -56.56274 9.2152395e-06
vn 56.562733 -82.466087 1.3435431e-05
vn -56.562733 1.3435432e-05 82.466095
vn 0 56.562748 82.46608
vn 0 82.466118 56.562702
vn 0 -82.466095 -56.562737
vn -100 0 -0
vn 0 -1.6292068e-05 -100
vn 100 0 0
vn 0 1.6292068e-05 100
vn 0 -100 1.6292068e-05
vn 0 100 -1.6292068e-05
vn -82.466087 -9.2152395e-06 -56.56274
vn 0 -82.46608 56.562767
vn -82.466118 56.562702 -9.2152341e-06
vn 56.562733 -1.3435432e-05 -82.466095
vn -82.466087 -56.56274 9.2152395e-06
vn 82.466087 9.2152395e-06 56.56274
vn 82.466118 56.562702 -9.2152341e-06
vn 0 -56.562748 -82.46608
vn 0 56.562717 -82.466095
vn -56.562733 -1.3435432e-05 -82.466095
vn 82.466087 -9.2152395e-06 -56.56274
vn -56.562721 82.46611 -1.3435434e-05
vn 56.562733 1.3435432e-05 82.466095
vn 0 82.466103 -56.562733
vn -82.466087 9.2152395e-06 56.56274
vn -56.562733 -82.466087 1.3435431e-05
vn 56.562721 82.46611 -1.3435434e-05
vn 0 -56.562717 82.466095

# Mesh 'Cube.034' with 54 faces
g Cube.034
usemtl Material
f  1//1 2//1 3//1 4//1
f  5//2 6//2 7//2 8//2
f  9//3 10//3 11//3 12//3
f  13//4 14//4 15//4 16//4
f  17//5 18//5 19//5 20//5
f  21//6 22//6 23//6 24//6
f  25//7 26//7 27//7 28//7
f  26//7 29//7 9//7 27//7
f  29//7 30//7 10//7 9//7
f  30//7 25//7 28//7 10//7
f  30//8 29//8 21//8 31//8
f  29//8 32//8 22//8 21//8
f  32//8 33//8 34//8 22//8
f  33//8 30//8 31//8 34//8
f  33//9 32//9 5//9 35//9
f  32//9 36//9 6//9 5//9
f  36//9 37//9 38//9 6//9
f  37//9 33//9 35//9 38//9
f  37//10 36//10 39//10 18//10
f  36//10 26//10 40//10 39//10
f  26//10 25//10 17//10 40//10
f  25//10 37//10 18//10 17//10
f  30//11 33//11 41//11 2//11
f  33//11 37//11 42//11 41//11
f  37//11 25//11 1//11 42//11
f  25//11 30//11 2//11 1//11
f  32//12 29//12 14//12 13//12
f  29//12 26//12 43//12 14//12
f  26//12 36//12 44//12 43//12
f  36//12 32//12 13//12 44//12
f  45//7 46//7 12//7 11//7
f  47//8 24//8 23//8 48//8
f  49//9 8//9 7//9 50//9
f  19//10 51//10 52//10 20//10
f  3//11 53//11 54//11 4//11
f  16//12 15//12 55//12 56//12
f  22//13 34//13 48//13 23//13
f  39//14 40//14 52//14 51//14
f  44//15 13//15 16//15 56//15
f  6//16 38//16 50//16 7//16
f  41//17 42//17 54//17 53//17
f  40//18 17//18 20//18 52//18
f  14//19 43//19 55//19 15//19
f  42//20 1//20 4//20 54//20
f  43//21 44//21 56//21 55//21
f  28//22 27//22 46//22 45//22
f  31//23 21//23 24//23 47//23
f  10//24 28//24 45//24 11//24
f  35//25 5//25 8//25 49//25
f  34//26 31//26 47//26 48//26
f  18//27 39//27 51//27 19//27
f  27//28 9//28 12//28 46//28
f  38//29 35//29 49//29 50//29
f  2//30 41//30 53//30 3//30

