# File produced by Open Asset Import Library (http://www.assimp.sf.net)
# (assimp v5.0.1588609223)

mtllib result.mtl

# 16 vertex positions
v  -100 1.6292068e-05 -300
v  -100 200.00002 -300.00003
v  -100 199.99998 -500.00003
v  -100 -1.6292068e-05 -500
v  100 199.99998 -500.00003
v  100 -1.6292068e-05 -500
v  100 200.00002 -300.00003
v  100 1.6292068e-05 -300
v  75 200.00002 -325.00003
v  75 199.99998 -475.00003
v  75 99.999985 -475
v  75 100.00002 -325
v  -75 200.00002 -325.00003
v  -75 199.99998 -475.00003
v  -75 99.999985 -475
v  -75 100.00002 -325

# 0 UV coordinates

# 6 vertex normals
vn -100 0 -0
vn 0 -1.6292068e-05 -100
vn 100 0 0
vn 0 1.6292068e-05 100
vn 0 -100 1.6292068e-05
vn 0 100 -1.6292068e-05

# Mesh 'Cube.085' with 14 faces
g Cube.085
usemtl Material
f  1//1 2//1 3//1 4//1
f  4//2 3//2 5//2 6//2
f  6//3 5//3 7//3 8//3
f  8//4 7//4 2//4 1//4
f  4//5 6//5 8//5 1//5
f  9//1 10//1 11//1 12//1
f  13//6 14//6 3//6 2//6
f  14//6 10//6 5//6 3//6
f  10//6 9//6 7//6 5//6
f  9//6 13//6 2//6 7//6
f  11//6 15//6 16//6 12//6
f  14//3 13//3 16//3 15//3
f  13//2 9//2 12//2 16//2
f  10//4 14//4 15//4 11//4

