# File produced by Open Asset Import Library (http://www.assimp.sf.net)
# (assimp v5.0.1588609223)

mtllib result.mtl

# 6 vertex positions
v  -400 1.6292068e-05 -700
v  -400 100 -800
v  -400 -1.6292068e-05 -900
v  -200 100 -800
v  -200 -1.6292068e-05 -900
v  -200 1.6292068e-05 -700

# 0 UV coordinates

# 5 vertex normals
vn -100 0 -0
vn 0 70.710663 -70.710693
vn 100 0 0
vn 0 70.710693 70.710663
vn 0 -100 1.6292068e-05

# Mesh 'Cube.027' with 5 faces
g Cube.027
usemtl Material
f  1//1 2//1 3//1
f  3//2 2//2 4//2 5//2
f  5//3 4//3 6//3
f  6//4 4//4 2//4 1//4
f  3//5 5//5 6//5 1//5

