# File produced by Open Asset Import Library (http://www.assimp.sf.net)
# (assimp v5.0.1588609223)

mtllib result.mtl

# 24 vertex positions
v  2840.2998 199.99998 -550
v  2840.3 -2.1855731e-06 -550
v  2799.6997 -1.4106502e-05 -550
v  2799.6997 199.99998 -550
v  2840.3 5.9604608e-06 -500.00003
v  2840.2998 200 -500
v  2799.6997 200 -500
v  2799.6997 -5.9604686e-06 -500.00003
v  2819.9998 129.39978 -540
v  2819.9998 129.39978 -510.00003
v  2819.9998 170 -510.00003
v  2819.9998 170 -540
v  3199.9998 170 -510.00003
v  3199.9998 170 -540
v  3199.9998 70.60022 -540
v  3199.9998 70.600212 -510
v  3199.9998 30 -510
v  3199.9998 29.999996 -540
v  2819.9998 30 -510
v  2819.9998 29.999996 -540
v  2819.9998 70.600204 -540
v  2819.9998 70.600227 -510
v  3199.9998 129.39978 -510.00003
v  3199.9998 129.39978 -540

# 0 UV coordinates

# 16 vertex normals
vn 0 9.3994458e-06 -100
vn 0 -1.0530028e-05 100
vn 100 1.1920931e-05 -1.942166e-12
vn 2.9361729e-05 -100 1.6292068e-05
vn 0 100 -1.6292068e-05
vn -100 -1.1920929e-05 1.9421658e-12
vn -99.999992 0 -0
vn 100 0 0
vn 0 -100 1.6292068e-05
vn 0 -1.6292068e-05 -100
vn -1.1513787e-13 8.5652964e-06 100
vn 0 8.3852683e-07 99.999992
vn 0 -1.6292066e-05 -99.999992
vn 99.999992 0 0
vn 0 100 -1.6292066e-05
vn -100 -2.4717357e-13 -1.5171405e-06

# Mesh 'Cylinder.009' with 18 faces
g Cylinder.009
usemtl Material
f  1//1 2//1 3//1 4//1
f  5//2 6//2 7//2 8//2
f  1//3 6//3 5//3 2//3
f  2//4 5//4 8//4 3//4
f  4//5 7//5 6//5 1//5
f  7//6 4//6 3//6 8//6
f  9//7 10//7 11//7 12//7
f  12//5 11//5 13//5 14//5
f  15//8 16//8 17//8 18//8
f  18//9 17//9 19//9 20//9
f  21//10 15//10 18//10 20//10
f  16//11 22//11 19//11 17//11
f  13//12 11//12 10//12 23//12
f  12//13 14//13 24//13 9//13
f  14//14 13//14 23//14 24//14
f  22//15 16//15 15//15 21//15
f  20//16 19//16 22//16 21//16
f  10//9 9//9 24//9 23//9

