# File produced by Open Asset Import Library (http://www.assimp.sf.net)
# (assimp v5.0.1588609223)

mtllib result.mtl

# 6 vertex positions
v  3099.9998 3.0517578e-05 -2100
v  3099.9998 0 -1700
v  3100 400 -1700
v  3099.9998 400 -2100
v  2700 400.00021 -2099.9998
v  2699.9998 0.00018310547 -2099.9998

# 0 UV coordinates

# 2 vertex normals
vn -100 3.1851105e-05 3.9400897e-05
vn 6.8743764e-05 -9.1894208e-07 100

# Mesh 'Cube.364' with 2 faces
g Cube.364
usemtl Material
f  1//1 2//1 3//1 4//1
f  5//2 6//2 1//2 4//2

