# File produced by Open Asset Import Library (http://www.assimp.sf.net)
# (assimp v5.0.1588609223)

mtllib result.mtl

# 12 vertex positions
v  -600 -1.6292068e-05 -500
v  -600 99.999985 -500
v  -513.39746 99.999992 -450
v  -513.39746 -8.146033e-06 -450
v  -513.39746 100.00001 -350
v  -513.39746 8.1460348e-06 -350
v  -600 100.00002 -300
v  -600 1.6292068e-05 -300
v  -686.60254 100.00001 -350.00003
v  -686.60254 8.1460321e-06 -350
v  -686.60254 99.999992 -450
v  -686.60254 -8.1460321e-06 -450

# 0 UV coordinates

# 8 vertex normals
vn 50 -1.4109345e-05 -86.602547
vn 100 9.7108291e-13 5.9604645e-06
vn 49.999992 1.4109345e-05 86.602547
vn -50.000011 1.4109344e-05 86.602539
vn 4.5883676e-06 100 -1.6292068e-05
vn -100 0 -0
vn -50.000008 -1.4109343e-05 -86.602531
vn 0 -100 1.6292068e-05

# Mesh 'Cylinder' with 8 faces
g Cylinder
usemtl Material
f  1//1 2//1 3//1 4//1
f  4//2 3//2 5//2 6//2
f  6//3 5//3 7//3 8//3
f  8//4 7//4 9//4 10//4
f  3//5 2//5 11//5 9//5 7//5 5//5
f  10//6 9//6 11//6 12//6
f  12//7 11//7 2//7 1//7
f  1//8 4//8 6//8 8//8 10//8 12//8

