# File produced by Open Asset Import Library (http://www.assimp.sf.net)
# (assimp v5.0.1588609223)

mtllib result.mtl

# 16 vertex positions
v  500 -7.1214893e-13 -800
v  500 1.6292066e-05 -700
v  500 200.00002 -700
v  500 200 -800
v  700 200.00002 -700
v  700 200 -800
v  700 1.6292066e-05 -700
v  700 -7.1214893e-13 -800
v  650 50.000011 -700
v  650 150.00002 -700
v  650 150 -800
v  650 49.999996 -800
v  550 50.000011 -700
v  550 49.999996 -800
v  550 150 -800
v  550 150.00002 -700

# 0 UV coordinates

# 8 vertex normals
vn -100 0 -0
vn 0 100 -1.6292068e-05
vn 100 0 0
vn 0 -100 1.6292068e-05
vn 0 -1.1920929e-05 -100
vn 0 1.2318425e-05 100
vn 0 1.6292068e-05 100
vn 0 -1.1920928e-05 -100

# Mesh 'Cube.015' with 16 faces
g Cube.015
usemtl Material
f  1//1 2//1 3//1 4//1
f  4//2 3//2 5//2 6//2
f  6//3 5//3 7//3 8//3
f  8//4 7//4 2//4 1//4
f  9//1 10//1 11//1 12//1
f  13//2 9//2 12//2 14//2
f  15//5 14//5 1//5 4//5
f  13//6 16//6 3//6 2//6
f  11//5 15//5 4//5 6//5
f  16//7 10//7 5//7 3//7
f  12//5 11//5 6//5 8//5
f  10//6 9//6 7//6 5//6
f  14//8 12//8 8//8 1//8
f  9//7 13//7 2//7 7//7
f  10//4 16//4 15//4 11//4
f  16//3 13//3 14//3 15//3

