# File produced by Open Asset Import Library (http://www.assimp.sf.net)
# (assimp v5.0.1588609223)

mtllib result.mtl

# 16 vertex positions
v  1700 1.6292068e-05 -1100
v  1700 400.00003 -1100.0001
v  1700 400 -1200.0001
v  1700 3.6415608e-13 -1200
v  2100 400.00003 -1100.0001
v  2100 4.6094392e-05 -1100
v  2100 2.9802322e-05 -1200
v  2100 400 -1200.0001
v  2000 300 -1200
v  2000 2.3841858e-05 -1200
v  2000 4.0133928e-05 -1100
v  2000 300.00003 -1100
v  1800 300 -1200
v  1800 300.00003 -1100
v  1800 1.6292068e-05 -1100
v  1800 3.6415608e-13 -1200

# 0 UV coordinates

# 11 vertex normals
vn -100 0 -0
vn 100 1.8874479e-06 -3.0750429e-13
vn -100 -3.9736433e-06 6.4738866e-13
vn 0 100 -1.6292068e-05
vn 0 -100 1.6292068e-05
vn 0 1.6292068e-05 100
vn 0 1.5837975e-05 100
vn 0 -1.6292068e-05 -100
vn 0 2.4239354e-05 100
vn 5.9604654e-06 -100 1.6292068e-05
vn 100 0 0

# Mesh 'Cube.044' with 14 faces
g Cube.044
usemtl Material
f  1//1 2//1 3//1 4//1
f  5//2 6//2 7//2 8//2
f  9//3 10//3 11//3 12//3
f  2//4 5//4 8//4 3//4
f  13//5 9//5 12//5 14//5
f  15//6 14//6 2//6 1//6
f  12//7 11//7 6//7 5//7
f  13//8 16//8 4//8 3//8
f  10//8 9//8 8//8 7//8
f  1//5 4//5 16//5 15//5
f  9//8 13//8 3//8 8//8
f  14//9 12//9 5//9 2//9
f  6//10 11//10 10//10 7//10
f  16//11 13//11 14//11 15//11

