# File produced by Open Asset Import Library (http://www.assimp.sf.net)
# (assimp v5.0.1588609223)

mtllib result.mtl

# 7 vertex positions
v  3400 400.00015 -1700.0001
v  3800 400 -1700
v  3800 400 -2100
v  3400 400.00015 -2100
v  3399.9998 9.1552734e-05 -1700
v  3799.9998 3.0517578e-05 -1699.9999
v  3399.9998 0.00015258789 -2100

# 0 UV coordinates

# 3 vertex normals
vn 3.8941438e-05 100 7.5821771e-12
vn -2.5431178e-05 1.1920932e-05 100
vn -100 5.3842603e-05 4.3711389e-06

# Mesh 'Cube.280' with 3 faces
g Cube.280
usemtl Material
f  1//1 2//1 3//1 4//1
f  5//2 6//2 2//2 1//2
f  4//3 7//3 5//3 1//3

