# File produced by Open Asset Import Library (http://www.assimp.sf.net)
# (assimp v5.0.1588609223)

mtllib result.mtl

# 16 vertex positions
v  600 4.9273043e-05 -2600
v  500 2.9802324e-05 -2600
v  500 2.9802321e-05 -2700
v  600 4.927304e-05 -2700
v  599.99988 400.00006 -2700
v  599.99994 4.9273029e-05 -3000
v  599.99982 400.00006 -3000
v  499.99988 400.00003 -2700
v  499.99991 400.00003 -2600
v  599.99988 400.00006 -2600
v  900 0.00010768519 -2700
v  899.99988 400.00012 -2700
v  899.99988 400.00012 -2600
v  900 0.0001076852 -2600
v  499.99994 2.980231e-05 -3000
v  499.99982 400.00003 -3000

# 0 UV coordinates

# 7 vertex normals
vn 1.9470719e-05 -100 0
vn 100 2.7418006e-05 -1.9470719e-05
vn -1.9470719e-05 100 0
vn 1.9470719e-05 3.7910885e-12 100
vn 100 2.5431184e-05 -1.9470719e-05
vn -100 -2.5133062e-05 1.9470719e-05
vn -1.9470719e-05 -3.7910885e-12 -100

# Mesh 'Cube.040' with 14 faces
g Cube.040
usemtl Material
f  1//1 2//1 3//1 4//1
f  5//2 4//2 6//2 7//2
f  5//3 8//3 9//3 10//3
f  10//4 9//4 2//4 1//4
f  11//5 12//5 13//5 14//5
f  8//6 3//6 2//6 9//6
f  13//4 10//4 1//4 14//4
f  12//3 5//3 10//3 13//3
f  11//7 4//7 5//7 12//7
f  14//1 1//1 4//1 11//1
f  6//7 15//7 16//7 7//7
f  3//6 8//6 16//6 15//6
f  8//3 5//3 7//3 16//3
f  4//1 3//1 15//1 6//1

