# File produced by Open Asset Import Library (http://www.assimp.sf.net)
# (assimp v5.0.1588609223)

mtllib result.mtl

# 26 vertex positions
v  -950 50.000008 50
v  -960.95679 100.00003 60.956779
v  -983.95062 100.00002 -1.508135e-05
v  -960.95679 39.043217 -6.45408e-06
v  -950 150.00005 49.999985
v  -960.95679 160.9568 -2.5571266e-05
v  -950 150.00002 -50.000031
v  -960.95679 100.00002 -60.956802
v  -950 49.999992 -50.000015
v  -900 100 -83.950645
v  -900 39.043205 -60.956795
v  -900 160.95679 -60.956814
v  -850 150.00002 -50.000023
v  -839.04321 100.00002 -60.95681
v  -850 49.999992 -50.000015
v  -816.04938 100.00002 -1.4988218e-05
v  -839.04321 39.043217 -4.6845662e-06
v  -839.04321 160.9568 -2.6036927e-05
v  -850 150.00005 49.999985
v  -839.04321 100.00003 60.956779
v  -850 50.000008 50
v  -900 100.00003 83.950615
v  -900 39.043228 60.956779
v  -900 160.95683 60.95676
v  -900 16.049385 -2.0559833e-06
v  -900 183.95064 -2.8572378e-05

# 0 UV coordinates

# 24 vertex normals
vn -90.147575 -30.605648 30.605677
vn -90.147583 30.605667 30.605656
vn -90.147575 30.605665 -30.605667
vn -90.147583 -30.605667 -30.605661
vn -30.605667 -30.605671 -90.147568
vn -30.605656 30.60565 -90.147583
vn 30.605654 30.605665 -90.147583
vn 30.605671 -30.605686 -90.147568
vn 90.147575 -30.605659 -30.605675
vn 90.147575 30.605659 -30.605671
vn 90.147575 30.605677 30.605656
vn 90.147575 -30.605654 30.605677
vn 30.605667 -30.605656 90.147583
vn 30.60565 30.605696 90.147575
vn -30.60565 30.605692 90.147575
vn -30.605671 -30.605656 90.147583
vn -30.605661 -90.147598 -30.60564
vn 30.605656 -90.147598 -30.60564
vn 30.605659 -90.147583 30.605675
vn -30.605661 -90.147583 30.605669
vn 30.605661 90.147583 -30.605675
vn -30.605646 90.147583 -30.605675
vn -30.60568 90.147583 30.605631
vn 30.60568 90.147583 30.605631

# Mesh 'Cube.084' with 24 faces
g Cube.084
usemtl Material
f  1//1 2//1 3//1 4//1
f  2//2 5//2 6//2 3//2
f  3//3 6//3 7//3 8//3
f  4//4 3//4 8//4 9//4
f  9//5 8//5 10//5 11//5
f  8//6 7//6 12//6 10//6
f  10//7 12//7 13//7 14//7
f  11//8 10//8 14//8 15//8
f  15//9 14//9 16//9 17//9
f  14//10 13//10 18//10 16//10
f  16//11 18//11 19//11 20//11
f  17//12 16//12 20//12 21//12
f  21//13 20//13 22//13 23//13
f  20//14 19//14 24//14 22//14
f  22//15 24//15 5//15 2//15
f  23//16 22//16 2//16 1//16
f  9//17 11//17 25//17 4//17
f  11//18 15//18 17//18 25//18
f  25//19 17//19 21//19 23//19
f  4//20 25//20 23//20 1//20
f  13//21 12//21 26//21 18//21
f  12//22 7//22 6//22 26//22
f  26//23 6//23 5//23 24//23
f  18//24 26//24 24//24 19//24

