# File produced by Open Asset Import Library (http://www.assimp.sf.net)
# (assimp v5.0.1588609223)

mtllib result.mtl

# 16 vertex positions
v  200 -7.1214893e-13 -1150
v  200 8.146033e-06 -1100
v  200 200.00002 -1100
v  200 200 -1150
v  400 200.00002 -1100
v  400 200 -1150
v  400 8.146033e-06 -1100
v  400 -7.1214893e-13 -1150
v  350 5.1658017e-06 -1100
v  350 150.00002 -1100
v  350 150 -1150
v  350 -2.9802327e-06 -1150
v  250 150 -1150
v  250 -2.9802327e-06 -1150
v  250 5.1658017e-06 -1100
v  250 150.00002 -1100

# 0 UV coordinates

# 12 vertex normals
vn -100 0 -0
vn 0 100 -1.6292068e-05
vn 100 0 0
vn 1.8733456e-06 -1.2545377e-05 -100
vn -5.1089701e-06 1.2886088e-05 100
vn 0 -1.1920929e-05 -100
vn 0 1.6292068e-05 100
vn -1.8733456e-06 -1.2545377e-05 -100
vn 5.1089701e-06 1.2886088e-05 100
vn 5.9604636e-06 -100 1.6292068e-05
vn 0 -100 1.6292068e-05
vn -5.9604636e-06 -100 1.6292068e-05

# Mesh 'Cube.016' with 14 faces
g Cube.016
usemtl Material
f  1//1 2//1 3//1 4//1
f  4//2 3//2 5//2 6//2
f  6//3 5//3 7//3 8//3
f  9//1 10//1 11//1 12//1
f  13//4 14//4 1//4 4//4
f  15//5 16//5 3//5 2//5
f  11//6 13//6 4//6 6//6
f  16//7 10//7 5//7 3//7
f  12//8 11//8 6//8 8//8
f  10//9 9//9 7//9 5//9
f  8//10 7//10 9//10 12//10
f  10//11 16//11 13//11 11//11
f  16//3 15//3 14//3 13//3
f  2//12 1//12 14//12 15//12

