# File produced by Open Asset Import Library (http://www.assimp.sf.net)
# (assimp v5.0.1588609223)

mtllib result.mtl

# 16 vertex positions
v  2400 0.00010681152 -2700
v  2250 7.6293945e-05 -2700
v  2250 400.00009 -2700
v  2400 400.00012 -2700
v  2099.9998 400.00006 -2850
v  2100 4.9591064e-05 -2850
v  2100 4.9591064e-05 -3000
v  2099.9998 400.00006 -3000
v  2400 400.00012 -2600
v  2400 0.00010681152 -2600
v  2200 6.8664551e-05 -2600
v  1999.9999 400.00003 -2800
v  2000 3.0517578e-05 -2800
v  2200 400.00006 -2600
v  2000 3.0517578e-05 -3000
v  1999.9999 400.00003 -3000

# 0 UV coordinates

# 11 vertex normals
vn -1.9470719e-05 -3.7910885e-12 -100
vn 100 2.7418006e-05 -1.9470719e-05
vn 100 2.5431184e-05 -1.9470719e-05
vn 2.0322213e-05 -100 -1.657922e-13
vn -70.710663 -1.5875217e-05 70.710686
vn -100 -2.5133062e-05 1.9470719e-05
vn -1.9470719e-05 100 0
vn 1.9470719e-05 -100 0
vn 1.9470719e-05 3.7910885e-12 100
vn 1.805156e-05 -100 1.1353268e-06
vn 70.71067 1.9387455e-05 -70.710693

# Mesh 'Cube.008' with 14 faces
g Cube.008
usemtl Material
f  1//1 2//1 3//1 4//1
f  5//2 6//2 7//2 8//2
f  1//3 4//3 9//3 10//3
f  10//4 11//4 2//4 1//4
f  12//5 13//5 11//5 14//5
f  7//1 15//1 16//1 8//1
f  13//6 12//6 16//6 15//6
f  12//7 5//7 8//7 16//7
f  6//8 13//8 15//8 7//8
f  4//7 3//7 14//7 9//7
f  9//9 14//9 11//9 10//9
f  13//10 6//10 2//10 11//10
f  3//11 2//11 6//11 5//11
f  12//7 14//7 3//7 5//7

