# File produced by Open Asset Import Library (http://www.assimp.sf.net)
# (assimp v5.0.1588609223)

mtllib result.mtl

# 6 vertex positions
v  1400 1.6292068e-05 100
v  1400 199.99998 -100.00003
v  1400 -1.6292068e-05 -100
v  1600 199.99998 -100.00003
v  1600 -1.6292068e-05 -100
v  1600 1.6292068e-05 100

# 0 UV coordinates

# 5 vertex normals
vn -100 0 -0
vn 0 -1.6292068e-05 -100
vn 100 0 0
vn 0 70.710693 70.710663
vn 0 -100 1.6292068e-05

# Mesh 'Cube.001' with 5 faces
g Cube.001
usemtl Material
f  1//1 2//1 3//1
f  3//2 2//2 4//2 5//2
f  5//3 4//3 6//3
f  6//4 4//4 2//4 1//4
f  3//5 5//5 6//5 1//5

