# File produced by Open Asset Import Library (http://www.assimp.sf.net)
# (assimp v5.0.1588609223)

mtllib result.mtl

# 24 vertex positions
v  50 338.47943 -2100
v  50 400 -2100
v  50 400.00003 -2000.0001
v  50 338.47946 -2000
v  -50 400.00003 -2000.0001
v  -50 338.47946 -2000
v  -50 400 -2100
v  -50 338.47943 -2100
v  50 1.6292068e-05 -2000
v  -50 1.6292068e-05 -2000
v  -50 0 -2100
v  50 0 -2100
v  -50 61.520542 -2100
v  50 61.520565 -2100
v  -50 61.520557 -2000
v  50 61.520557 -2000
v  28.873056 61.520554 -2021.127
v  -28.873055 61.520554 -2021.127
v  28.873056 61.520569 -2078.873
v  28.873056 338.47943 -2078.873
v  -28.873055 338.47943 -2078.873
v  -28.873055 338.47943 -2021.127
v  -28.873055 61.520546 -2078.873
v  28.873056 338.47943 -2021.127

# 0 UV coordinates

# 12 vertex normals
vn 100 0 0
vn 0 1.6292068e-05 100
vn -100 0 -0
vn 0 -1.6292068e-05 -100
vn 0 -100 1.6292068e-05
vn 0 100 -1.6292068e-05
vn 0 99.999992 1.3936071e-05
vn 7.1539303e-05 -99.999992 1.6292066e-05
vn 100 6.0718113e-13 3.7268514e-06
vn 0 99.999992 -1.6292066e-05
vn -3.5769655e-05 100 -1.6292068e-05
vn -7.1539303e-05 -99.999992 1.6292066e-05

# Mesh 'Cube.032' with 22 faces
g Cube.032
usemtl Material
f  1//1 2//1 3//1 4//1
f  4//2 3//2 5//2 6//2
f  6//3 5//3 7//3 8//3
f  8//4 7//4 2//4 1//4
f  9//5 10//5 11//5 12//5
f  5//6 3//6 2//6 7//6
f  11//4 13//4 14//4 12//4
f  15//6 16//6 17//6 18//6
f  10//3 15//3 13//3 11//3
f  16//7 14//7 19//7 17//7
f  9//2 16//2 15//2 10//2
f  8//5 1//5 20//5 21//5
f  12//1 14//1 16//1 9//1
f  6//8 8//8 21//8 22//8
f  23//4 21//4 20//4 19//4
f  18//3 22//3 21//3 23//3
f  17//2 24//2 22//2 18//2
f  19//9 20//9 24//9 17//9
f  13//10 15//10 18//10 23//10
f  14//11 13//11 23//11 19//11
f  1//12 4//12 24//12 20//12
f  4//5 6//5 22//5 24//5

