# File produced by Open Asset Import Library (http://www.assimp.sf.net)
# (assimp v5.0.1588609223)

mtllib result.mtl

# 5 vertex positions
v  1445.597 0.020851167 304.40292
v  1450 39.916592 300
v  1445.597 0.020849733 295.59708
v  1454.403 0.020849733 295.59708
v  1454.403 0.020851167 304.40292

# 0 UV coordinates

# 5 vertex normals
vn -99.396538 10.969456 -1.7871512e-06
vn 0 10.969437 -99.39653
vn 99.396538 10.969456 -1.7871512e-06
vn 0 10.969469 99.39653
vn 0 -100 1.6292068e-05

# Mesh 'Cube.475' with 5 faces
g Cube.475
usemtl Material
f  1//1 2//1 3//1
f  3//2 2//2 4//2
f  4//3 2//3 5//3
f  5//4 2//4 1//4
f  3//5 4//5 5//5 1//5

