# File produced by Open Asset Import Library (http://www.assimp.sf.net)
# (assimp v5.0.1588609223)

mtllib result.mtl

# 16 vertex positions
v  899.99988 1.9073486e-05 -2000.0004
v  749.99994 2.2888184e-05 -2000.0002
v  749.99988 100.00002 -2000.0002
v  899.99988 100.00002 -2000.0004
v  599.99976 100.00003 -2150
v  599.99982 4.196167e-05 -2150
v  599.99969 4.9591064e-05 -2300
v  599.99963 100.00005 -2300
v  899.99994 100 -1900.0004
v  900 1.1444092e-05 -1900.0004
v  700 2.2888184e-05 -1900.0001
v  499.99982 100.00003 -2100
v  499.99985 4.196167e-05 -2100
v  700 100.00002 -1900.0001
v  499.99969 5.3405762e-05 -2300
v  499.99966 100.00005 -2300

# 0 UV coordinates

# 12 vertex normals
vn -7.9075362e-05 5.9604699e-06 -100
vn 100 4.3312582e-05 -7.9075362e-05
vn 100 4.3312561e-05 -7.9075362e-05
vn -3.519644e-06 -100 -5.9604672e-06
vn -70.710625 -2.6411934e-05 70.710732
vn -100 -4.0927614e-05 7.9075362e-05
vn 4.3711389e-06 100 5.9604668e-06
vn -4.3711389e-06 -100 -5.9604668e-06
vn 4.3711443e-06 100 1.2772427e-05
vn 7.9075362e-05 -5.9604627e-06 100
vn -5.7902962e-06 -100 -4.8251395e-06
vn 70.710625 3.4841312e-05 -70.710732

# Mesh 'Cube.355' with 14 faces
g Cube.355
usemtl Material
f  1//1 2//1 3//1 4//1
f  5//2 6//2 7//2 8//2
f  1//3 4//3 9//3 10//3
f  10//4 11//4 2//4 1//4
f  12//5 13//5 11//5 14//5
f  7//1 15//1 16//1 8//1
f  13//6 12//6 16//6 15//6
f  12//7 5//7 8//7 16//7
f  6//8 13//8 15//8 7//8
f  4//9 3//9 14//9 9//9
f  9//10 14//10 11//10 10//10
f  13//11 6//11 2//11 11//11
f  3//12 2//12 6//12 5//12
f  12//7 14//7 3//7 5//7

