# File produced by Open Asset Import Library (http://www.assimp.sf.net)
# (assimp v5.0.1588609223)

mtllib result.mtl

# 8 vertex positions
v  500 -7.1214893e-13 -400
v  500 1.6292066e-05 -300
v  500 200.00002 -300.00003
v  500 200 -400.00003
v  700 200.00002 -300.00003
v  700 200 -400.00003
v  700 1.6292066e-05 -300
v  700 -7.1214893e-13 -400

# 0 UV coordinates

# 6 vertex normals
vn -100 0 -0
vn 0 100 -1.6292068e-05
vn 100 0 0
vn 0 -100 1.6292068e-05
vn 0 -1.1920929e-05 -100
vn 0 1.3311836e-05 100

# Mesh 'Cube.011' with 6 faces
g Cube.011
usemtl Material
f  1//1 2//1 3//1 4//1
f  4//2 3//2 5//2 6//2
f  6//3 5//3 7//3 8//3
f  8//4 7//4 2//4 1//4
f  4//5 6//5 8//5 1//5
f  5//6 3//6 2//6 7//6

