# File produced by Open Asset Import Library (http://www.assimp.sf.net)
# (assimp v5.0.1588609223)

mtllib result.mtl

# 38 vertex positions
v  750 79.999962 330
v  725 79.999969 330
v  725 39.999973 330
v  750 64.999962 330
v  675 146.66666 330
v  700 146.66664 330
v  700.00006 179.99998 330
v  675 180 330
v  725 146.66663 300
v  700 146.66664 300
v  700.00006 179.99998 300
v  725 179.99997 300
v  675 180 300
v  675 79.999992 300
v  700 79.999985 300
v  699.99994 14.999985 300
v  675 39.999996 300
v  725 79.999969 300
v  700 113.33331 300
v  725 113.33331 300
v  675 79.999992 330
v  700 79.999985 330
v  700 113.33331 330
v  675 113.33333 330
v  725 113.33331 330
v  725 146.66663 330
v  650 80 330
v  650 65 330
v  675 39.999996 330
v  725 179.99997 330
v  675 113.33333 300
v  675 146.66666 300
v  650 80 300
v  650 65 300
v  725 39.999973 300
v  699.99994 14.999985 330
v  750 64.999962 300
v  750 79.999962 300

# 0 UV coordinates

# 11 vertex normals
vn 1.7021842e-12 4.3711389e-06 100
vn -1.7021842e-12 -4.3711389e-06 -100
vn 3.8941438e-05 100 -4.3711389e-06
vn -70.710701 -70.710648 3.0908618e-06
vn 70.710648 -70.710709 3.0908618e-06
vn 70.71064 -70.710709 3.0908618e-06
vn -70.710709 -70.710648 3.0908618e-06
vn -1.1353264e-05 4.3711434e-06 100
vn -100 3.8941438e-05 0
vn 1.1353268e-05 4.3711343e-06 100
vn 100 -3.8941438e-05 0

# Mesh 'Cube.043' with 36 faces
g Cube.043
usemtl Material
f  1//1 2//1 3//1 4//1
f  5//1 6//1 7//1 8//1
f  9//2 10//2 11//2 12//2
f  13//3 8//3 7//3 11//3
f  14//2 15//2 16//2 17//2
f  18//2 15//2 19//2 20//2
f  20//2 19//2 10//2 9//2
f  21//1 22//1 23//1 24//1
f  24//1 23//1 6//1 5//1
f  23//1 25//1 26//1 6//1
f  22//1 2//1 25//1 23//1
f  21//1 27//1 28//1 29//1
f  6//1 26//1 30//1 7//1
f  11//3 7//3 30//3 12//3
f  19//2 31//2 32//2 10//2
f  15//2 14//2 31//2 19//2
f  10//2 32//2 13//2 11//2
f  33//2 14//2 17//2 34//2
f  17//4 29//4 28//4 34//4
f  35//5 3//5 36//5 16//5
f  37//6 4//6 3//6 35//6
f  16//7 36//7 29//7 17//7
f  22//8 21//8 29//8 36//8
f  27//9 33//9 34//9 28//9
f  2//10 22//10 36//10 3//10
f  38//11 1//11 4//11 37//11
f  15//2 18//2 35//2 16//2
f  18//2 38//2 37//2 35//2
f  1//3 38//3 18//3 2//3
f  25//11 2//11 18//11 20//11
f  26//11 25//11 20//11 9//11
f  12//11 30//11 26//11 9//11
f  21//3 14//3 33//3 27//3
f  31//9 14//9 21//9 24//9
f  32//9 31//9 24//9 5//9
f  8//9 13//9 32//9 5//9

