# File produced by Open Asset Import Library (http://www.assimp.sf.net)
# (assimp v5.0.1588609223)

mtllib result.mtl

# 24 vertex positions
v  1288.2238 2.1723404e-06 313.33374
v  1288.2238 6.0000019 313.33374
v  1288.2238 5.9999981 289.78134
v  1288.2238 -1.6648324e-06 289.78134
v  1311.7762 5.9999981 289.78134
v  1311.7762 -1.6648324e-06 289.78134
v  1311.7762 6.0000019 313.33374
v  1311.7762 2.1723404e-06 313.33374
v  1292.907 6.000001 308.65057
v  1307.093 6.000001 308.65057
v  1307.093 7.500001 308.65057
v  1292.907 7.500001 308.65057
v  1297.2368 2.9327846 303.57651
v  1297.2368 20.264847 308.20071
v  1297.2368 21.639868 302.8277
v  1297.2368 2.9695609 298.11801
v  1302.7632 21.639868 302.8277
v  1302.7632 2.9695609 298.11801
v  1302.7632 20.264847 308.20071
v  1302.7632 2.9327846 303.57651
v  1292.907 5.9999986 294.46448
v  1307.093 5.9999986 294.46448
v  1307.093 7.4999986 294.46448
v  1292.907 7.4999986 294.46448

# 0 UV coordinates

# 12 vertex normals
vn -100 0 -0
vn 0 -1.6292068e-05 -100
vn 100 0 0
vn 0 1.6292068e-05 100
vn 0 -100 1.6292068e-05
vn 0 24.459265 -96.962593
vn 0 -25.77841 96.620262
vn 0 -99.997726 -0.67373019
vn 0 96.877991 24.792252
vn 1.0539187e-05 100 -1.6292068e-05
vn 0 100 -1.6292068e-05
vn -1.0539187e-05 100 -1.6292068e-05

# Mesh 'Cube.003' with 20 faces
g Cube.003
usemtl Material
f  1//1 2//1 3//1 4//1
f  4//2 3//2 5//2 6//2
f  6//3 5//3 7//3 8//3
f  8//4 7//4 2//4 1//4
f  4//5 6//5 8//5 1//5
f  9//4 10//4 11//4 12//4
f  13//1 14//1 15//1 16//1
f  16//6 15//6 17//6 18//6
f  18//3 17//3 19//3 20//3
f  20//7 19//7 14//7 13//7
f  16//8 18//8 20//8 13//8
f  17//9 15//9 14//9 19//9
f  9//10 21//10 3//10 2//10
f  21//11 22//11 5//11 3//11
f  22//12 10//12 7//12 5//12
f  10//11 9//11 2//11 7//11
f  23//11 24//11 12//11 11//11
f  22//2 21//2 24//2 23//2
f  10//3 22//3 23//3 11//3
f  21//1 9//1 12//1 24//1

