# File produced by Open Asset Import Library (http://www.assimp.sf.net)
# (assimp v5.0.1588609223)

mtllib result.mtl

# 7 vertex positions
v  -300 -1.6292068e-05 -1300
v  -300 200 -1200
v  -213.39746 -8.146033e-06 -1250
v  -213.39746 8.1460348e-06 -1150
v  -300 1.6292068e-05 -1100
v  -386.60254 8.1460321e-06 -1150
v  -386.60254 -8.1460321e-06 -1250

# 0 UV coordinates

# 7 vertex normals
vn 45.883144 39.735962 -79.471954
vn 91.766289 39.735973 -1.0041144e-06
vn 45.883141 39.735981 79.471939
vn -45.88316 39.735985 79.471931
vn 0 -100 1.6292068e-05
vn -91.766289 39.735973 -6.4738115e-06
vn -45.883152 39.735954 -79.471939

# Mesh 'Cone' with 7 faces
g Cone
usemtl Material
f  1//1 2//1 3//1
f  3//2 2//2 4//2
f  4//3 2//3 5//3
f  5//4 2//4 6//4
f  1//5 3//5 4//5 5//5 6//5 7//5
f  6//6 2//6 7//6
f  7//7 2//7 1//7

