# File produced by Open Asset Import Library (http://www.assimp.sf.net)
# (assimp v5.0.1588609223)

mtllib result.mtl

# 64 vertex positions
v  -600 -1.6292068e-05 -2500
v  -600 399.99997 -2500
v  -580.49097 399.99997 -2498.0786
v  -580.49097 -1.597902e-05 -2498.0786
v  -561.73163 400 -2492.3879
v  -561.73163 -1.5051907e-05 -2492.3879
v  -544.44299 400 -2483.147
v  -544.44299 -1.3546359e-05 -2483.147
v  -529.28931 400 -2470.7107
v  -529.28931 -1.1520231e-05 -2470.7107
v  -516.85303 400 -2455.5571
v  -516.85303 -9.0513877e-06 -2455.5571
v  -507.61206 400 -2438.2683
v  -507.61206 -6.2347044e-06 -2438.2683
v  -501.92148 400 -2419.509
v  -501.92148 -3.1784252e-06 -2419.509
v  -500 400 -2400
v  -500 7.1214893e-13 -2400
v  -501.92148 400 -2380.491
v  -501.92148 3.1784248e-06 -2380.491
v  -507.61206 400 -2361.7317
v  -507.61206 6.234704e-06 -2361.7317
v  -516.85303 400 -2344.4431
v  -516.85303 9.0513868e-06 -2344.4429
v  -529.28931 400 -2329.2893
v  -529.28931 1.1520231e-05 -2329.2893
v  -544.44299 400 -2316.853
v  -544.44299 1.354636e-05 -2316.853
v  -561.73163 400 -2307.6121
v  -561.73163 1.5051907e-05 -2307.6121
v  -580.49097 400.00003 -2301.9216
v  -580.49097 1.5979022e-05 -2301.9214
v  -600 400.00003 -2300
v  -600 1.6292068e-05 -2300
v  -619.50903 400.00003 -2301.9216
v  -619.50903 1.5979022e-05 -2301.9214
v  -638.26831 400 -2307.6121
v  -638.26831 1.5051907e-05 -2307.6121
v  -655.55701 400 -2316.853
v  -655.55701 1.3546358e-05 -2316.853
v  -670.71069 400 -2329.2893
v  -670.71069 1.1520232e-05 -2329.2893
v  -683.14697 400 -2344.4431
v  -683.14697 9.0513913e-06 -2344.4429
v  -692.38794 400 -2361.7317
v  -692.38794 6.2347067e-06 -2361.7317
v  -698.07849 400 -2380.491
v  -698.07849 3.1784257e-06 -2380.491
v  -700 400 -2400
v  -700 -1.9428097e-13 -2400
v  -698.07849 400 -2419.509
v  -698.07849 -3.1784261e-06 -2419.509
v  -692.38794 400 -2438.2683
v  -692.38794 -6.2347071e-06 -2438.2683
v  -683.14697 400 -2455.5571
v  -683.14697 -9.0513849e-06 -2455.5571
v  -670.71069 400 -2470.7107
v  -670.71069 -1.152023e-05 -2470.7107
v  -655.55701 400 -2483.147
v  -655.55701 -1.3546359e-05 -2483.147
v  -638.26831 400 -2492.3879
v  -638.26831 -1.5051908e-05 -2492.3879
v  -619.50903 399.99997 -2498.0786
v  -619.50903 -1.5979022e-05 -2498.0786

# 0 UV coordinates

# 34 vertex normals
vn 9.8017292 -1.6213617e-05 -99.518471
vn 29.028463 -1.5590536e-05 -95.694038
vn 47.139671 -1.4368322e-05 -88.192131
vn 63.439335 -1.2593938e-05 -77.301041
vn 77.301041 -1.033558e-05 -63.439335
vn 88.192139 -7.680027e-06 -47.139668
vn 95.694031 -4.7293383e-06 -29.028473
vn 99.518471 -1.5969038e-06 -9.8017254
vn 99.518471 1.5969047e-06 9.8017311
vn 95.694038 4.7293338e-06 29.028446
vn 88.192131 7.680027e-06 47.139671
vn 77.301041 1.0335581e-05 63.439339
vn 63.439339 1.2593939e-05 77.301041
vn 47.139664 1.436832e-05 88.192123
vn 29.028484 1.5590535e-05 95.694023
vn 9.8016949 1.6213617e-05 99.518471
vn -9.8017063 1.6213617e-05 99.518471
vn -29.028484 1.5590535e-05 95.694023
vn -47.139679 1.436832e-05 88.192123
vn -63.439327 1.259394e-05 77.301048
vn -77.301033 1.0335581e-05 63.439346
vn -88.192108 7.6800334e-06 47.139706
vn -95.694038 4.7293361e-06 29.028458
vn -99.518471 1.5969038e-06 9.8017254
vn -99.518471 -1.5969038e-06 -9.8017254
vn -95.694031 -4.7293402e-06 -29.028484
vn -88.192123 -7.680027e-06 -47.139668
vn -77.301064 -1.0335574e-05 -63.439304
vn -63.439339 -1.2593939e-05 -77.301041
vn -47.139679 -1.436832e-05 -88.192123
vn 1.9095211e-05 100 -1.6292068e-05
vn -29.028458 -1.5590538e-05 -95.694038
vn -9.8017035 -1.6213617e-05 -99.518471
vn 0 -99.999992 1.6292066e-05

# Mesh 'Cylinder.005' with 34 faces
g Cylinder.005
usemtl Material
f  1//1 2//1 3//1 4//1
f  4//2 3//2 5//2 6//2
f  6//3 5//3 7//3 8//3
f  8//4 7//4 9//4 10//4
f  10//5 9//5 11//5 12//5
f  12//6 11//6 13//6 14//6
f  14//7 13//7 15//7 16//7
f  16//8 15//8 17//8 18//8
f  18//9 17//9 19//9 20//9
f  20//10 19//10 21//10 22//10
f  22//11 21//11 23//11 24//11
f  24//12 23//12 25//12 26//12
f  26//13 25//13 27//13 28//13
f  28//14 27//14 29//14 30//14
f  30//15 29//15 31//15 32//15
f  32//16 31//16 33//16 34//16
f  34//17 33//17 35//17 36//17
f  36//18 35//18 37//18 38//18
f  38//19 37//19 39//19 40//19
f  40//20 39//20 41//20 42//20
f  42//21 41//21 43//21 44//21
f  44//22 43//22 45//22 46//22
f  46//23 45//23 47//23 48//23
f  48//24 47//24 49//24 50//24
f  50//25 49//25 51//25 52//25
f  52//26 51//26 53//26 54//26
f  54//27 53//27 55//27 56//27
f  56//28 55//28 57//28 58//28
f  58//29 57//29 59//29 60//29
f  60//30 59//30 61//30 62//30
f  3//31 2//31 63//31 61//31 59//31 57//31 55//31 53//31 51//31 49//31 47//31 45//31 43//31 41//31 39//31 37//31 35//31 33//31 31//31 29//31 27//31 25//31 23//31 21//31 19//31 17//31 15//31 13//31 11//31 9//31 7//31 5//31
f  62//32 61//32 63//32 64//32
f  64//33 63//33 2//33 1//33
f  1//34 4//34 6//34 8//34 10//34 12//34 14//34 16//34 18//34 20//34 22//34 24//34 26//34 28//34 30//34 32//34 34//34 36//34 38//34 40//34 42//34 44//34 46//34 48//34 50//34 52//34 54//34 56//34 58//34 60//34 62//34 64//34

