# File produced by Open Asset Import Library (http://www.assimp.sf.net)
# (assimp v5.0.1588609223)

mtllib result.mtl

# 33 vertex positions
v  -300 -1.6292068e-05 -1700
v  -300 200 -1600
v  -280.49097 -1.597902e-05 -1698.0785
v  -261.73166 -1.5051907e-05 -1692.3879
v  -244.44298 -1.3546359e-05 -1683.147
v  -229.28932 -1.1520231e-05 -1670.7107
v  -216.85304 -9.0513877e-06 -1655.557
v  -207.61206 -6.2347044e-06 -1638.2683
v  -201.92148 -3.1784252e-06 -1619.509
v  -200 7.1214893e-13 -1600
v  -201.92148 3.1784248e-06 -1580.491
v  -207.61205 6.234704e-06 -1561.7317
v  -216.85303 9.0513868e-06 -1544.443
v  -229.28932 1.1520231e-05 -1529.2893
v  -244.44298 1.354636e-05 -1516.853
v  -261.73166 1.5051907e-05 -1507.6121
v  -280.49097 1.5979022e-05 -1501.9215
v  -300 1.6292068e-05 -1500
v  -319.50903 1.5979022e-05 -1501.9215
v  -338.26834 1.5051907e-05 -1507.6121
v  -355.55704 1.3546358e-05 -1516.853
v  -370.71066 1.1520232e-05 -1529.2893
v  -383.14694 9.0513913e-06 -1544.443
v  -392.38794 6.2347067e-06 -1561.7317
v  -398.07852 3.1784257e-06 -1580.491
v  -400 -1.9428097e-13 -1600
v  -398.07852 -3.1784261e-06 -1619.509
v  -392.38794 -6.2347071e-06 -1638.2683
v  -383.14697 -9.0513849e-06 -1655.557
v  -370.71069 -1.152023e-05 -1670.7107
v  -355.55704 -1.3546359e-05 -1683.147
v  -338.26834 -1.5051908e-05 -1692.3879
v  -319.50903 -1.5979022e-05 -1698.0785

# 0 UV coordinates

# 33 vertex normals
vn 8.7753677 44.548817 -89.097672
vn 25.988827 44.548817 -85.673698
vn 42.203568 44.548832 -78.957336
vn 56.796455 44.548824 -69.20668
vn 69.206673 44.548824 -56.796463
vn 78.957336 44.548824 -42.203571
vn 85.673691 44.548828 -25.988842
vn 89.097672 44.548836 -8.7753725
vn 89.097664 44.548832 8.7753611
vn 85.673698 44.548836 25.988804
vn 78.957329 44.548843 42.20356
vn 69.20668 44.548843 56.796455
vn 56.796463 44.548847 69.206673
vn 42.203568 44.548843 78.957329
vn 25.988848 44.548847 85.673676
vn 8.7753382 44.548851 89.097664
vn -8.7753477 44.548847 89.097656
vn -25.988848 44.548843 85.673676
vn -42.203575 44.548855 78.957321
vn -56.796455 44.548851 69.20668
vn -69.206665 44.54884 56.796459
vn -78.957314 44.548851 42.203594
vn -85.673698 44.54884 25.988813
vn -89.097672 44.548836 8.7753572
vn -89.097672 44.548836 -8.7753725
vn -85.673691 44.548828 -25.988855
vn -78.957336 44.548828 -42.203579
vn -69.206696 44.548817 -56.79644
vn -56.796455 44.548828 -69.206673
vn -42.203575 44.54882 -78.957336
vn 0 -99.999992 1.6292066e-05
vn -25.988817 44.548817 -85.673698
vn -8.7753448 44.54882 -89.097679

# Mesh 'Cone.001' with 33 faces
g Cone.001
usemtl Material
f  1//1 2//1 3//1
f  3//2 2//2 4//2
f  4//3 2//3 5//3
f  5//4 2//4 6//4
f  6//5 2//5 7//5
f  7//6 2//6 8//6
f  8//7 2//7 9//7
f  9//8 2//8 10//8
f  10//9 2//9 11//9
f  11//10 2//10 12//10
f  12//11 2//11 13//11
f  13//12 2//12 14//12
f  14//13 2//13 15//13
f  15//14 2//14 16//14
f  16//15 2//15 17//15
f  17//16 2//16 18//16
f  18//17 2//17 19//17
f  19//18 2//18 20//18
f  20//19 2//19 21//19
f  21//20 2//20 22//20
f  22//21 2//21 23//21
f  23//22 2//22 24//22
f  24//23 2//23 25//23
f  25//24 2//24 26//24
f  26//25 2//25 27//25
f  27//26 2//26 28//26
f  28//27 2//27 29//27
f  29//28 2//28 30//28
f  30//29 2//29 31//29
f  31//30 2//30 32//30
f  1//31 3//31 4//31 5//31 6//31 7//31 8//31 9//31 10//31 11//31 12//31 13//31 14//31 15//31 16//31 17//31 18//31 19//31 20//31 21//31 22//31 23//31 24//31 25//31 26//31 27//31 28//31 29//31 30//31 31//31 32//31 33//31
f  32//32 2//32 33//32
f  33//33 2//33 1//33

