# File produced by Open Asset Import Library (http://www.assimp.sf.net)
# (assimp v5.0.1588609223)

mtllib result.mtl

# 72 vertex positions
v  3500 175 -3.2981465e-05
v  3500 200 -3.7054484e-05
v  3500 200 -20.000031
v  3500 175 -20.000027
v  3673.3333 175 -20.000027
v  3673.3333 200 -20.000031
v  3700 200 -20.000031
v  3700 175 -20.000027
v  3700 200 -3.7054484e-05
v  3700 175 -3.2981465e-05
v  3526.6667 175 -3.2981465e-05
v  3526.6667 200 -3.7054484e-05
v  3673.3333 -3.258413e-06 -19.999998
v  3700 -3.258413e-06 -19.999998
v  3700 -7.2831216e-13 -4.4703484e-06
v  3673.3333 -7.2831216e-13 -4.4703484e-06
v  3526.6667 200 -20.000031
v  3673.3333 200 -3.7054484e-05
v  3500 -3.258413e-06 -19.999998
v  3526.6667 -3.258413e-06 -19.999998
v  3526.6667 -7.2831216e-13 -4.4703484e-06
v  3500 -7.2831216e-13 -4.4703484e-06
v  3526.6667 25 -8.5433658e-06
v  3526.6667 24.999996 -20.000002
v  3673.3333 175 -3.2981465e-05
v  3526.6667 175 -20.000027
v  3526.6667 49.999996 -20.000006
v  3673.3333 49.999996 -20.000006
v  3673.3333 24.999996 -20.000002
v  3526.6667 75 -20.00001
v  3526.6667 100 -20.000015
v  3673.3333 100 -20.000015
v  3673.3333 75 -20.00001
v  3526.6667 125 -20.000019
v  3526.6667 150 -20.000023
v  3673.3333 150 -20.000023
v  3673.3333 125 -20.000019
v  3500 24.999996 -20.000002
v  3500 49.999996 -20.000006
v  3500 75 -20.00001
v  3500 100 -20.000015
v  3500 125 -20.000019
v  3500 150 -20.000023
v  3673.3333 25 -8.5433658e-06
v  3673.3333 50 -1.2616382e-05
v  3526.6667 50 -1.2616382e-05
v  3673.3333 75 -1.6689399e-05
v  3673.3333 100 -2.0762416e-05
v  3526.6667 100 -2.0762416e-05
v  3526.6667 75 -1.6689399e-05
v  3673.3333 125 -2.4835434e-05
v  3673.3333 150 -2.8908449e-05
v  3526.6667 150 -2.8908449e-05
v  3526.6667 125 -2.4835434e-05
v  3700 25 -8.5433658e-06
v  3700 50 -1.2616382e-05
v  3700 75 -1.6689399e-05
v  3700 100 -2.0762416e-05
v  3700 125 -2.4835434e-05
v  3700 150 -2.8908449e-05
v  3500 25 -8.5433658e-06
v  3500 50 -1.2616382e-05
v  3500 75 -1.6689399e-05
v  3500 100 -2.0762416e-05
v  3500 125 -2.4835434e-05
v  3500 150 -2.8908449e-05
v  3700 24.999996 -20.000002
v  3700 49.999996 -20.000006
v  3700 75 -20.00001
v  3700 100 -20.000015
v  3700 125 -20.000019
v  3700 150 -20.000023

# 0 UV coordinates

# 6 vertex normals
vn -100 0 -0
vn 0 -1.6292068e-05 -100
vn 100 0 0
vn 0 1.6292068e-05 100
vn 0 -100 1.6292068e-05
vn 0 100 -1.6292068e-05

# Mesh 'Cube.033' with 76 faces
g Cube.033
usemtl Material
f  1//1 2//1 3//1 4//1
f  5//2 6//2 7//2 8//2
f  8//3 7//3 9//3 10//3
f  11//4 12//4 2//4 1//4
f  13//5 14//5 15//5 16//5
f  17//6 3//6 2//6 12//6
f  7//6 6//6 18//6 9//6
f  6//6 17//6 12//6 18//6
f  19//5 20//5 21//5 22//5
f  23//3 21//3 20//3 24//3
f  10//4 9//4 18//4 25//4
f  25//4 18//4 12//4 11//4
f  4//2 3//2 17//2 26//2
f  26//2 17//2 6//2 5//2
f  24//2 27//2 28//2 29//2
f  30//2 31//2 32//2 33//2
f  34//2 35//2 36//2 37//2
f  19//2 38//2 24//2 20//2
f  38//2 39//2 27//2 24//2
f  39//2 40//2 30//2 27//2
f  40//2 41//2 31//2 30//2
f  41//2 42//2 34//2 31//2
f  42//2 43//2 35//2 34//2
f  43//2 4//2 26//2 35//2
f  44//4 45//4 46//4 23//4
f  47//4 48//4 49//4 50//4
f  51//4 52//4 53//4 54//4
f  15//4 55//4 44//4 16//4
f  55//4 56//4 45//4 44//4
f  56//4 57//4 47//4 45//4
f  57//4 58//4 48//4 47//4
f  58//4 59//4 51//4 48//4
f  59//4 60//4 52//4 51//4
f  60//4 10//4 25//4 52//4
f  21//4 23//4 61//4 22//4
f  23//4 46//4 62//4 61//4
f  46//4 50//4 63//4 62//4
f  50//4 49//4 64//4 63//4
f  49//4 54//4 65//4 64//4
f  54//4 53//4 66//4 65//4
f  53//4 11//4 1//4 66//4
f  14//3 67//3 55//3 15//3
f  67//3 68//3 56//3 55//3
f  68//3 69//3 57//3 56//3
f  69//3 70//3 58//3 57//3
f  70//3 71//3 59//3 58//3
f  71//3 72//3 60//3 59//3
f  72//3 8//3 10//3 60//3
f  13//2 29//2 67//2 14//2
f  29//2 28//2 68//2 67//2
f  28//2 33//2 69//2 68//2
f  33//2 32//2 70//2 69//2
f  32//2 37//2 71//2 70//2
f  37//2 36//2 72//2 71//2
f  36//2 5//2 8//2 72//2
f  22//1 61//1 38//1 19//1
f  61//1 62//1 39//1 38//1
f  62//1 63//1 40//1 39//1
f  63//1 64//1 41//1 40//1
f  64//1 65//1 42//1 41//1
f  65//1 66//1 43//1 42//1
f  66//1 1//1 4//1 43//1
f  29//5 44//5 23//5 24//5
f  44//1 29//1 13//1 16//1
f  27//6 46//6 45//6 28//6
f  45//1 47//1 33//1 28//1
f  30//5 33//5 47//5 50//5
f  46//3 27//3 30//3 50//3
f  31//6 49//6 48//6 32//6
f  48//1 51//1 37//1 32//1
f  34//5 37//5 51//5 54//5
f  49//3 31//3 34//3 54//3
f  35//6 53//6 52//6 36//6
f  52//1 25//1 5//1 36//1
f  26//5 5//5 25//5 11//5
f  53//3 35//3 26//3 11//3

